<svg version="1.1" id="Layer_1" xmlns="http://www.w3.org/2000/svg" xmlns:xlink="http://www.w3.org/1999/xlink" x="0px" y="0px"
	 width="100%" viewBox="0 0 1024 672" enable-background="new 0 0 1024 672" xml:space="preserve">
<path fill="#000000" opacity="1.000000" stroke="none" 
	d="
M491.078613,199.978210 
	C497.342285,197.164017 503.294769,194.576080 509.159729,191.803040 
	C511.929169,190.493622 514.400879,190.498810 517.245117,191.761124 
	C543.096436,203.234528 568.983765,214.627335 594.905457,225.940903 
	C597.910400,227.252411 599.207275,229.086945 599.214783,232.379547 
	C599.257080,250.893127 599.504822,247.220749 584.719360,247.265594 
	C535.278809,247.415588 485.837433,247.320999 436.396393,247.311737 
	C428.245483,247.310211 427.743469,246.880936 427.792206,238.952103 
	C427.875793,225.350510 426.203003,228.304871 438.555237,222.822861 
	C455.890259,215.129501 473.334167,207.681488 491.078613,199.978210 
M465.344818,228.925644 
	C463.357391,229.828125 461.369965,230.730606 459.382538,231.633087 
	C459.500214,231.849075 459.617920,232.065063 459.735626,232.281052 
	C495.574341,232.281052 531.413086,232.281052 568.637817,232.281052 
	C550.854431,224.124161 534.356995,216.664581 517.977234,208.955032 
	C514.627014,207.378159 511.908508,207.436768 508.599609,208.999039 
	C494.470184,215.670227 480.224213,222.094620 465.344818,228.925644 
z"/>
<path fill="#000000" opacity="1.000000" stroke="none" 
	d="
M516.000000,339.697754 
	C540.981750,339.698364 565.463440,339.679443 589.945190,339.714325 
	C596.093018,339.723083 598.506409,341.646637 599.006775,346.624725 
	C599.691589,353.438019 598.360840,354.959473 591.503845,354.963837 
	C541.541260,354.995697 491.578644,355.010132 441.616028,355.026428 
	C440.117310,355.026917 438.618256,355.001160 437.119934,354.964081 
	C428.843658,354.759247 426.546387,351.678497 428.858032,343.715576 
	C429.906860,340.102478 432.939911,339.711151 436.058960,339.705048 
	C446.551086,339.684570 457.043304,339.696411 467.535461,339.696564 
	C483.523651,339.696777 499.511810,339.697601 516.000000,339.697754 
z"/>
<path fill="#000000" opacity="1.000000" stroke="none" 
	d="
M278.948242,453.810669 
	C280.471588,455.237030 283.041718,455.501984 282.450073,457.941620 
	C281.870605,460.330841 279.587097,459.888428 277.859100,459.904083 
	C271.695984,459.959930 265.530975,459.908722 259.368225,459.805054 
	C258.085480,459.783478 256.543549,459.704376 256.179199,458.018005 
	C255.870712,456.590302 256.978455,455.959808 258.038635,455.418518 
	C261.176910,453.816162 261.743988,451.056519 261.726318,447.848114 
	C261.651917,434.352386 261.660248,420.856140 261.672638,407.360077 
	C261.675964,403.725616 261.311371,400.330750 257.605865,398.378052 
	C256.510956,397.801086 255.783875,396.862488 256.053864,395.525208 
	C256.402344,393.799255 257.835114,393.719086 259.174133,393.719177 
	C269.503357,393.719940 279.846924,393.439819 290.155975,393.908569 
	C295.667908,394.159180 300.940002,396.230560 305.025940,400.280304 
	C312.957458,408.141632 311.692566,420.232849 301.972595,426.447937 
	C298.454102,428.697632 297.948975,430.531677 300.093414,433.928040 
	C303.558533,439.416138 306.718262,445.097198 309.999542,450.701111 
	C311.222809,452.790192 312.928406,454.271057 315.208740,455.146637 
	C316.335205,455.579193 317.239197,456.353821 317.135925,457.752563 
	C317.024841,459.257263 315.843018,459.482666 314.686127,459.769897 
	C305.807831,461.974335 298.276154,459.025024 293.418549,451.118378 
	C290.458130,446.299774 287.728333,441.328918 285.116394,436.311188 
	C283.769745,433.724182 282.345428,431.809296 279.049805,432.376221 
	C275.434540,432.998169 276.469696,435.953735 276.541809,437.944641 
	C276.731934,443.194244 275.965607,448.630981 278.948242,453.810669 
M276.344757,415.282593 
	C276.369598,417.103485 276.520142,418.933136 276.394470,420.743591 
	C276.087158,425.170624 278.491394,426.039673 282.260559,425.616486 
	C291.755371,424.550537 296.680481,415.871887 292.809601,406.883881 
	C290.620056,401.799774 285.430328,399.615387 278.885132,401.393921 
	C274.245239,402.654724 277.007141,406.661041 276.404938,409.392700 
	C276.056885,410.971649 276.341919,412.690186 276.344757,415.282593 
z"/>
<path fill="#000000" opacity="1.000000" stroke="none" 
	d="
M465.629883,421.004272 
	C465.612335,416.012848 465.728241,411.514557 465.534454,407.029663 
	C465.384033,403.547913 465.191071,399.957458 461.357056,398.069000 
	C460.259338,397.528381 459.690521,396.419067 459.978851,395.123993 
	C460.253448,393.890533 461.331024,393.718842 462.322876,393.744537 
	C474.271912,394.053864 486.334625,392.260895 498.154968,394.695129 
	C515.876404,398.344635 524.378357,411.079895 523.314209,431.404968 
	C522.548218,446.033691 510.502380,457.703888 494.403046,459.417114 
	C484.278107,460.494537 474.123779,459.804871 463.982941,459.895081 
	C462.545746,459.907867 460.771942,460.067230 460.088684,458.345581 
	C459.385803,456.574432 460.675110,455.603333 462.009338,454.776825 
	C465.342926,452.711853 465.518585,449.282562 465.567535,445.962494 
	C465.687683,437.810852 465.621338,429.656433 465.629883,421.004272 
M480.319214,434.498718 
	C480.324860,439.316650 480.326202,444.134583 480.338409,448.952515 
	C480.342804,450.685944 480.511932,452.123932 482.725464,452.661285 
	C491.346375,454.754089 500.972107,449.899139 504.460388,441.628387 
	C507.407043,434.641907 507.138062,427.327606 506.667664,420.033417 
	C505.834747,407.118561 498.123352,400.254822 485.164795,400.243622 
	C481.509735,400.240479 480.174225,401.356445 480.253937,405.091278 
	C480.455933,414.556671 480.320374,424.029327 480.319214,434.498718 
z"/>
<path fill="#000000" opacity="1.000000" stroke="none" 
	d="
M523.783203,147.211365 
	C524.923035,148.852448 525.845398,150.211929 526.583618,151.300018 
	C526.442993,153.098801 525.188477,153.526154 524.389832,154.320740 
	C519.859375,158.828430 519.465210,165.121277 523.451599,169.537033 
	C527.651855,174.189713 534.472717,174.922546 539.269104,171.261703 
	C542.787903,168.576004 544.009155,164.998749 541.980530,161.152435 
	C540.385193,158.127670 541.160400,156.274841 543.220947,154.127945 
	C547.429443,149.743164 553.583313,146.259201 558.700439,145.960449 
	C556.867371,153.337662 555.077881,160.528931 553.294312,167.721634 
	C552.092957,172.566467 550.755127,177.383636 549.752441,182.269424 
	C549.051392,185.685181 547.021973,186.562302 543.970154,186.100143 
	C523.896179,183.060089 503.830139,183.363647 483.758026,186.143463 
	C480.146301,186.643631 477.239655,186.050629 476.250732,181.651581 
	C473.660492,170.129044 470.829376,158.660690 468.124329,147.163666 
	C468.025299,146.742737 468.242218,146.247437 468.435791,144.967697 
	C475.097412,147.459930 481.175690,150.090439 485.323944,155.936111 
	C486.297058,157.307373 486.093048,158.597855 485.474701,160.141800 
	C483.210968,165.794327 484.146515,169.389450 488.262421,171.830978 
	C493.033112,174.660904 499.505188,173.538666 503.183350,169.243744 
	C506.515381,165.352997 507.018677,158.727219 503.127167,155.598846 
	C498.745941,152.076859 500.208649,149.759888 502.887177,146.380783 
	C506.466766,141.864960 509.564056,136.966843 513.237061,131.704849 
	C516.910278,137.119308 520.237976,142.024536 523.783203,147.211365 
z"/>
<path fill="#000000" opacity="1.000000" stroke="none" 
	d="
M410.991455,422.984314 
	C408.885956,420.264343 407.002075,417.821991 404.356842,414.392548 
	C404.356842,426.714600 404.326202,437.807983 404.377869,448.900970 
	C404.391144,451.750061 406.442078,453.290314 408.588684,454.686188 
	C409.715271,455.418793 410.949677,456.184296 410.629333,457.787903 
	C410.246643,459.703400 408.565735,459.827667 407.089996,459.851837 
	C402.429321,459.928131 397.766205,459.905579 393.104797,459.853363 
	C391.944397,459.840393 390.656982,459.662659 390.113892,458.439301 
	C389.584015,457.245667 389.980072,456.047272 391.059662,455.357544 
	C395.928772,452.246674 395.789703,447.442383 395.739197,442.503326 
	C395.625061,431.346283 395.637817,420.186707 395.737640,409.029388 
	C395.777557,404.569611 395.793671,400.317200 391.120789,397.806427 
	C390.056763,397.234711 389.747833,395.989532 390.101685,394.762177 
	C399.289734,391.368683 407.016144,393.463379 412.572449,400.825226 
	C420.990631,411.979004 429.398773,423.140320 438.625122,435.378021 
	C438.625122,424.444519 438.709961,414.741516 438.570892,405.041748 
	C438.531677,402.305328 436.309937,400.732574 434.266022,399.232819 
	C432.902344,398.232178 431.433777,397.145966 432.051086,395.182068 
	C432.646973,393.286346 434.471283,393.713806 435.884155,393.698120 
	C441.494446,393.635712 447.105774,393.672455 452.305298,393.672455 
	C453.649597,396.115540 452.695068,397.301483 451.446716,398.224548 
	C447.806213,400.916504 447.233826,404.636139 447.269928,408.852417 
	C447.396942,423.673401 447.378235,438.496613 447.263306,453.317810 
	C447.246094,455.541321 448.583740,458.662506 444.952972,459.570496 
	C441.615906,460.405029 438.901245,459.614563 436.660950,456.624695 
	C428.274170,445.431946 419.710419,434.371796 410.991455,422.984314 
z"/>
<path fill="#000000" opacity="1.000000" stroke="none" 
	d="
M500.200684,261.828705 
	C499.374542,261.199310 498.842438,260.798798 498.286041,260.435455 
	C496.462830,259.244781 494.239838,258.098907 495.126984,255.450119 
	C495.971893,252.927353 498.461700,253.733932 500.329559,253.718658 
	C509.477112,253.643768 518.625793,253.652710 527.773560,253.711227 
	C529.496216,253.722244 531.712524,253.076294 532.505127,255.404877 
	C533.301941,257.745911 531.798706,259.186615 529.924988,260.189392 
	C525.598022,262.505035 524.181213,266.121307 524.234375,270.921570 
	C524.400208,285.889404 524.357056,300.860809 524.247620,315.829712 
	C524.215637,320.209259 525.519348,323.616821 529.467773,325.811859 
	C531.815063,327.116791 533.582703,328.912476 532.608582,331.844421 
	C531.687195,334.617645 529.096741,333.914642 527.056519,333.930389 
	C518.075317,333.999695 509.092804,333.998352 500.111938,333.907166 
	C498.051788,333.886292 495.511536,334.235168 494.888367,331.295349 
	C494.320953,328.618774 495.644623,326.894104 497.967407,325.681213 
	C502.271942,323.433533 503.817413,319.815430 503.764709,314.994629 
	C503.602875,300.192963 503.664246,285.388306 503.730072,270.585205 
	C503.744843,267.260864 503.150726,264.308594 500.200684,261.828705 
z"/>
<path fill="#000000" opacity="1.000000" stroke="none" 
	d="
M448.492859,267.921936 
	C447.443268,263.915771 445.135529,261.419739 441.938995,259.647491 
	C440.309967,258.744293 439.440430,257.389893 439.954803,255.516922 
	C440.475861,253.619324 442.180756,253.735748 443.649353,253.730988 
	C453.806915,253.698029 463.964691,253.701080 474.122314,253.722977 
	C475.448059,253.725830 476.925659,253.721725 477.333099,255.418686 
	C477.709839,256.987762 477.475739,258.663940 475.934875,259.346985 
	C468.843018,262.490875 468.951752,268.562134 469.031464,274.938873 
	C469.202148,288.591431 469.149994,302.248810 469.003021,315.902222 
	C468.955688,320.303192 470.088684,323.730591 474.285187,325.730621 
	C476.875336,326.965057 478.048553,329.164917 477.259796,331.886719 
	C476.527832,334.412384 474.032043,333.863434 472.153778,333.882721 
	C462.995941,333.976654 453.836456,333.986847 444.678436,333.912537 
	C442.798279,333.897308 440.423584,334.285156 439.834381,331.548218 
	C439.296722,329.050690 440.502167,327.492767 442.719818,326.393066 
	C446.859650,324.340149 448.700409,320.919922 448.674896,316.285522 
	C448.586853,300.300476 448.596344,284.314880 448.492859,267.921936 
z"/>
<path fill="#000000" opacity="1.000000" stroke="none" 
	d="
M198.131653,401.095551 
	C211.699677,389.696442 226.312439,391.407349 241.270767,396.494171 
	C242.859589,397.034485 243.849564,398.143127 243.893265,399.781464 
	C243.986328,403.269043 243.968338,406.762390 243.880753,410.250488 
	C243.850967,411.437317 243.354538,412.555359 242.024689,412.923920 
	C240.512192,413.343140 239.446289,412.658081 238.688248,411.401367 
	C238.173035,410.547211 237.708710,409.662323 237.222351,408.790771 
	C233.565918,402.238617 227.937088,399.687286 220.559326,400.260803 
	C213.829483,400.784027 209.171509,404.413757 206.815918,410.294464 
	C202.181976,421.863098 202.033386,433.694824 207.247406,445.171234 
	C210.825256,453.046326 220.699661,456.281738 228.555832,452.624084 
	C229.142746,452.350861 229.796326,452.044586 230.192291,451.566132 
	C232.615158,448.638458 230.800278,435.408081 227.618713,433.000977 
	C226.304642,432.006683 224.412018,431.347198 225.155701,429.245483 
	C225.880463,427.197235 227.891312,427.709564 229.479401,427.695251 
	C235.138565,427.644257 240.798782,427.651031 246.457932,427.705261 
	C247.727341,427.717407 249.260788,427.450439 249.923996,429.019806 
	C250.541916,430.481964 249.807053,431.575134 248.685638,432.472626 
	C245.216690,435.248901 246.311844,439.168823 246.273376,442.706818 
	C246.136093,455.331177 245.599792,456.169403 233.366745,459.315643 
	C226.723557,461.024231 220.062302,461.845734 213.148392,460.476593 
	C197.854431,457.447937 188.177704,446.100708 187.604324,430.462555 
	C187.196426,419.337494 189.523422,409.313629 198.131653,401.095551 
z"/>
<path fill="#000000" opacity="1.000000" stroke="none" 
	d="
M558.656250,304.962402 
	C558.654968,294.151733 558.596497,283.834381 558.675049,273.518097 
	C558.719604,267.666138 557.457947,262.618378 551.669434,259.761719 
	C550.072144,258.973450 549.040833,257.678192 549.476990,255.724380 
	C549.982727,253.458389 551.868469,253.728271 553.480164,253.721893 
	C563.297729,253.683014 573.115479,253.673920 582.933044,253.712082 
	C584.531616,253.718292 586.464111,253.421783 587.051941,255.598236 
	C587.642090,257.783539 586.302795,259.075500 584.583740,259.968872 
	C579.669006,262.523010 578.221497,266.698090 578.276428,271.981537 
	C578.423523,286.124176 578.413330,300.270142 578.278015,314.413025 
	C578.231201,319.298584 579.471191,323.241669 583.965881,325.733826 
	C586.350708,327.056152 587.961304,329.008301 587.027893,331.848572 
	C586.131165,334.577423 583.478271,333.892822 581.459167,333.911469 
	C572.141785,333.997711 562.822815,333.953339 553.504761,333.899933 
	C551.863953,333.890533 549.992493,333.927643 549.355347,331.906677 
	C548.767578,330.042419 548.930847,327.917297 550.666870,326.953003 
	C558.613037,322.538849 558.904297,315.139313 558.659241,307.452972 
	C558.638062,306.788025 558.656372,306.121796 558.656250,304.962402 
z"/>
<path fill="#000000" opacity="1.000000" stroke="none" 
	d="
M558.605835,451.047363 
	C558.771912,435.338074 558.837463,420.039337 558.945190,404.740845 
	C558.966248,401.741852 557.444214,399.761078 555.088684,398.196381 
	C553.914124,397.416168 553.034973,396.393799 553.637512,394.864624 
	C554.184753,393.475586 555.520996,393.683563 556.641418,393.682770 
	C566.288818,393.675995 575.939148,393.580109 585.581665,393.807556 
	C588.175293,393.868774 590.826355,394.716431 593.311462,395.597015 
	C603.468811,399.196228 607.789917,405.563049 607.337524,415.926056 
	C607.004578,423.552002 600.354431,430.765015 591.543091,433.169556 
	C587.148193,434.368866 582.674316,434.466309 578.182922,434.319977 
	C575.468323,434.231537 574.181580,435.300507 574.288879,438.117004 
	C574.402771,441.106750 574.362976,444.105316 574.299683,447.098114 
	C574.228455,450.466949 575.077576,453.347595 578.132629,455.225433 
	C579.136414,455.842468 580.163208,456.499603 579.901672,457.928833 
	C579.634521,459.388702 578.385742,459.710175 577.252380,459.724457 
	C570.106201,459.814240 562.958618,459.826385 555.811707,459.804840 
	C554.798767,459.801788 553.811157,459.361115 553.483459,458.257629 
	C553.085144,456.916870 553.810303,456.042450 554.914001,455.411499 
	C556.542419,454.480621 557.921509,453.326294 558.605835,451.047363 
M574.303589,420.361725 
	C575.025757,422.905090 572.372437,426.950256 576.991577,427.724579 
	C581.791321,428.529175 586.308655,427.560211 589.395081,423.210297 
	C592.555237,418.756378 592.646729,410.181946 589.609680,405.658325 
	C587.356262,402.301910 580.768921,399.698914 576.809875,400.362946 
	C574.550659,400.741882 574.313660,402.168091 574.314087,403.944702 
	C574.315186,409.096466 574.308533,414.248230 574.303589,420.361725 
z"/>
<path fill="#000000" opacity="1.000000" stroke="none" 
	d="
M808.421509,425.487244 
	C810.137817,420.736572 811.810486,416.383484 813.269226,411.959808 
	C815.139099,406.289215 819.300842,400.934540 815.097290,394.340637 
	C820.303223,393.189240 824.767334,393.598602 829.184082,393.825684 
	C832.163147,393.978851 832.438110,396.828003 833.234619,398.919708 
	C839.215942,414.627319 845.146606,430.354248 851.074280,446.082245 
	C852.372375,449.526337 853.632812,452.972137 856.824646,455.219696 
	C857.860352,455.949005 858.462036,456.913361 858.046509,458.213043 
	C857.610657,459.576508 856.352539,459.795532 855.215271,459.807220 
	C848.554749,459.875641 841.893127,459.890625 835.232422,459.840820 
	C833.944275,459.831207 832.443970,459.769257 831.976501,458.132019 
	C831.518677,456.528717 832.551270,455.659851 833.781494,454.973633 
	C839.297791,451.896790 835.101929,448.002686 834.606628,444.473175 
	C834.114990,440.969666 831.731873,440.049866 828.449219,440.241699 
	C825.129395,440.435699 821.788757,440.270050 818.457275,440.270782 
	C811.618103,440.272278 808.443298,443.536957 808.346802,450.462708 
	C808.312683,452.915771 809.776184,453.986450 811.663452,454.926392 
	C812.865845,455.525208 814.104797,456.291229 813.820251,457.919159 
	C813.523071,459.619293 812.000549,459.785034 810.707031,459.807312 
	C805.880127,459.890442 801.047607,459.946533 796.224060,459.796021 
	C793.985046,459.726135 792.211975,457.938354 794.113770,456.250244 
	C802.462891,448.838959 803.008972,437.910004 807.196472,428.646362 
	C807.607361,427.737396 807.922913,426.785400 808.421509,425.487244 
M829.934570,432.652130 
	C828.078796,425.105896 825.456787,417.830963 822.153320,409.726654 
	C819.286865,417.923553 816.746582,425.187714 814.089478,432.786011 
	C819.681641,433.732117 824.604797,433.837982 829.934570,432.652130 
z"/>
<path fill="#000000" opacity="1.000000" stroke="none" 
	d="
M668.790771,459.777954 
	C664.966858,458.489594 665.825500,456.639801 667.914124,455.056274 
	C671.127075,452.620361 672.918091,449.367493 674.205200,445.678192 
	C678.041931,434.680817 681.925964,423.699982 685.802979,412.716705 
	C687.909790,406.748230 691.673584,400.968567 686.886108,394.310730 
	C692.233093,393.219879 696.713501,393.721619 701.164368,393.746063 
	C703.938538,393.761292 704.526489,396.071625 705.293274,398.090546 
	C711.200867,413.644867 717.076233,429.211487 723.016907,444.753143 
	C724.548889,448.761017 725.829773,452.827728 729.647217,455.635681 
	C731.945679,457.326355 730.939697,459.490417 728.247314,459.677521 
	C720.941528,460.185333 713.609497,460.203613 706.296143,459.629578 
	C705.319519,459.552917 704.318115,459.147156 704.113159,457.932037 
	C703.916443,456.766296 704.555908,456.038483 705.505920,455.552307 
	C711.511719,452.478638 707.613525,448.212585 706.890625,444.310699 
	C706.153442,440.331970 703.308167,440.128448 700.091736,440.280518 
	C697.266724,440.414062 694.430420,440.306305 691.599121,440.310760 
	C683.645996,440.323303 683.474182,440.489319 681.606567,448.159180 
	C680.950867,450.851654 681.134033,453.122498 683.925232,454.515961 
	C685.426941,455.265686 687.200195,456.001831 686.460388,458.151276 
	C685.772095,460.151123 683.797791,459.903137 682.189270,459.919739 
	C677.861023,459.964447 673.531311,459.877777 668.790771,459.777954 
M692.594971,416.142059 
	C691.060181,420.510773 689.552185,424.889191 687.978577,429.243835 
	C687.255249,431.245361 687.236511,433.168091 689.753601,433.369263 
	C693.921021,433.702362 698.177246,434.246948 702.818054,432.787994 
	C700.418823,425.235382 698.254211,418.093170 694.794617,410.635712 
	C693.960266,412.731323 693.415833,414.098694 692.594971,416.142059 
z"/>
<path fill="#000000" opacity="1.000000" stroke="none" 
	d="
M359.500549,457.331421 
	C364.973297,454.080170 364.441620,449.990601 362.544312,445.003021 
	C361.172974,441.397980 359.306091,439.974091 355.575867,440.291656 
	C352.764038,440.530945 349.915344,440.333649 347.083038,440.336700 
	C339.034027,440.345428 339.162628,440.383972 336.924835,448.089203 
	C336.025238,451.186829 336.508118,453.253357 339.491547,454.628174 
	C340.870880,455.263794 342.345215,456.030365 341.946899,457.904907 
	C341.538391,459.827209 339.757080,459.786438 338.322845,459.820831 
	C333.827454,459.928528 329.328125,459.920837 324.831055,459.877686 
	C323.527252,459.865204 322.036469,459.849182 321.613617,458.164215 
	C321.282166,456.843506 322.066772,455.948669 323.055115,455.227417 
	C326.623047,452.623779 328.143677,448.754059 329.556610,444.804321 
	C334.266541,431.638184 338.694275,418.358795 343.876465,405.380920 
	C345.600616,401.063202 342.017212,398.167053 342.631775,394.045319 
	C347.296265,393.293549 351.930573,393.607025 356.534515,393.795746 
	C359.261475,393.907532 359.732910,396.394958 360.486237,398.374725 
	C366.523315,414.239716 372.518066,430.120819 378.546021,445.989288 
	C379.908661,449.576508 381.301300,453.097778 384.716156,455.436005 
	C386.605896,456.729980 386.965668,459.096252 384.314056,459.403198 
	C376.395935,460.319733 368.406738,460.482574 360.475464,459.245422 
	C360.066956,459.181732 359.797272,458.227905 359.500549,457.331421 
M352.196960,416.344727 
	C351.462067,414.950500 351.625031,413.062653 349.327332,411.801392 
	C346.864258,418.833282 344.463226,425.688080 341.813049,433.254150 
	C347.713562,433.695770 352.495026,434.056824 357.325043,433.140045 
	C357.325043,432.072784 357.450928,431.550293 357.305725,431.119049 
	C355.722290,426.416534 354.096436,421.728271 352.196960,416.344727 
z"/>
<path fill="#000000" opacity="1.000000" stroke="none" 
	d="
M741.221436,446.268250 
	C749.588562,430.969940 758.531799,416.398163 766.195801,400.983704 
	C754.656677,397.913574 748.416931,399.955322 741.841736,408.672607 
	C740.690369,410.199066 739.507996,411.765381 737.370117,410.924408 
	C735.150452,410.051239 736.218872,408.193451 736.439453,406.612854 
	C738.252258,393.620911 738.246094,393.621796 751.204468,393.634003 
	C760.200195,393.642487 769.196045,393.612701 778.191528,393.661896 
	C784.557983,393.696686 785.960999,396.054688 782.815491,401.743011 
	C774.595886,416.607300 766.252991,431.403381 758.000122,446.249359 
	C757.054688,447.950073 755.663208,449.507416 755.713684,451.637146 
	C766.556458,455.614807 775.765198,452.625763 782.115479,443.136749 
	C783.106079,441.656494 783.967712,439.540070 786.265137,440.470673 
	C788.302063,441.295715 787.559631,443.360016 787.332336,444.908020 
	C784.688660,462.915466 787.158142,459.705994 771.633545,459.951477 
	C761.807617,460.106812 751.976196,460.018433 742.148499,459.918243 
	C735.274475,459.848175 734.268311,457.974609 737.749146,452.188293 
	C738.865112,450.333099 739.942566,448.454773 741.221436,446.268250 
z"/>
<path fill="#000000" opacity="1.000000" stroke="none" 
	d="
M635.376099,398.398590 
	C632.838074,400.485840 633.014343,403.101318 633.004211,405.558441 
	C632.946777,419.533539 633.035095,433.509491 632.924072,447.483978 
	C632.894775,451.175690 634.019775,452.635681 638.033752,452.894318 
	C646.427002,453.435089 652.665222,450.787933 656.412354,443.025513 
	C657.134033,441.530518 658.027039,439.703247 660.046875,440.323273 
	C662.243408,440.997528 661.455872,443.170288 661.247986,444.649902 
	C658.646790,463.166199 661.505676,459.618713 645.466858,459.941162 
	C636.153809,460.128387 626.833130,460.002106 617.516785,459.915894 
	C615.639709,459.898529 613.147583,460.536133 612.362793,458.041351 
	C611.676514,455.859619 614.068787,455.542236 615.281067,454.593109 
	C617.171753,453.112762 617.716980,451.140869 617.714661,448.868286 
	C617.699158,434.060883 617.670654,419.253387 617.730652,404.446228 
	C617.742065,401.622864 616.635132,399.672699 614.187744,398.389374 
	C612.924072,397.726654 611.907043,396.744354 612.252258,395.248932 
	C612.639404,393.571747 614.223206,393.707611 615.529297,393.691895 
	C621.684265,393.617767 627.840759,393.494324 633.994568,393.570312 
	C638.165894,393.621826 638.156311,395.502747 635.376099,398.398590 
z"/>
<path fill="#000000" opacity="1.000000" stroke="none" 
	d="
M459.450531,529.497925 
	C453.631348,521.460510 452.913147,512.690491 457.583618,505.402557 
	C462.506805,497.720428 470.084991,495.864349 478.535736,496.863739 
	C486.977325,497.862061 492.878632,503.407135 494.862183,511.605347 
	C496.929657,520.150391 493.329681,528.855591 485.955475,533.143127 
	C477.600311,538.001038 467.371216,536.689026 459.450531,529.497925 
M477.728271,504.634735 
	C476.571228,504.541290 475.405701,504.308197 474.258514,504.377563 
	C467.740234,504.771637 463.231842,509.748169 463.371155,516.307434 
	C463.521759,523.398315 468.056946,527.902771 474.979980,527.837708 
	C481.273041,527.778564 485.182770,524.479248 486.437866,518.168762 
	C487.535095,512.652039 484.410004,507.446899 477.728271,504.634735 
z"/>
<path fill="#000000" opacity="1.000000" stroke="none" 
	d="
M428.219086,534.894775 
	C425.622498,531.542969 426.788635,527.949768 426.740112,524.562012 
	C426.693420,521.301880 425.485718,519.938049 422.303802,520.205444 
	C421.807892,520.247131 421.305084,520.209351 420.805481,520.205322 
	C409.852997,520.116943 409.787842,520.114380 409.368927,530.922302 
	C409.262909,533.657471 408.732269,535.359192 405.491821,535.296570 
	C402.552155,535.239807 400.716736,534.546631 400.746796,531.117920 
	C400.832977,521.292786 400.818237,511.466095 400.747375,501.640717 
	C400.725677,498.630920 402.028351,497.538635 404.982574,497.586487 
	C407.746307,497.631287 409.566071,498.279694 409.316467,501.478668 
	C409.290680,501.809021 409.294189,502.149017 409.340729,502.476501 
	C409.797791,505.693695 407.685699,510.321930 410.535614,511.872406 
	C414.516510,514.038208 419.644012,512.679199 424.274506,512.495239 
	C426.482635,512.407410 426.630676,510.508240 426.633850,508.766266 
	C426.640167,505.298431 426.635712,501.830566 426.635712,498.499359 
	C434.081604,496.578094 435.046844,497.279572 435.065002,504.280457 
	C435.086578,512.607483 434.893066,520.939209 435.119110,529.260010 
	C435.250397,534.093689 433.539795,536.166870 428.219086,534.894775 
z"/>
<path fill="#000000" opacity="1.000000" stroke="none" 
	d="
M586.953735,501.877350 
	C586.255066,504.464294 584.457886,504.285736 582.814331,504.307220 
	C579.485840,504.350769 576.151123,504.451355 572.829041,504.303284 
	C569.780151,504.167419 568.245972,505.027313 568.258179,508.470551 
	C568.270081,511.833588 569.650879,512.899963 572.770569,512.714539 
	C575.258118,512.566650 577.763550,512.750122 580.258545,512.687805 
	C582.797302,512.624451 584.350403,513.333679 584.343445,516.309998 
	C584.336365,519.319275 582.602234,519.949280 580.181824,519.979553 
	C577.519226,520.012878 574.855713,520.053955 572.193542,520.018372 
	C569.510376,519.982605 568.312256,521.127563 568.292969,523.921448 
	C568.273743,526.707520 569.378845,527.869019 572.123657,527.817322 
	C575.783936,527.748413 579.446960,527.843689 583.108704,527.829651 
	C585.600647,527.820190 587.227722,528.550537 587.305786,531.481567 
	C587.383118,534.383118 585.981262,535.270813 583.362488,535.252197 
	C576.871460,535.206055 570.378967,535.186340 563.888733,535.273743 
	C560.898254,535.313965 559.707825,533.964478 559.722656,531.055237 
	C559.773621,521.068665 559.774170,511.081360 559.713562,501.094818 
	C559.698303,498.570801 560.738342,497.550903 563.260498,497.465973 
	C569.912537,497.242065 576.551147,497.218811 583.203003,497.575470 
	C585.903137,497.720245 587.294800,498.616974 586.953735,501.877350 
z"/>
<path fill="#000000" opacity="1.000000" stroke="none" 
	d="
M514.891907,504.345032 
	C511.856140,504.444611 509.789703,503.972351 509.898285,500.648071 
	C510.005066,497.378387 512.328491,497.608063 514.498901,497.603790 
	C521.805664,497.589447 529.112549,497.579803 536.419006,497.627869 
	C538.693909,497.642853 541.199158,497.249878 541.292664,500.897186 
	C541.385742,504.523376 539.031555,504.342377 536.647156,504.345825 
	C528.978027,504.356842 529.961975,503.577179 529.541565,511.428070 
	C529.195923,517.883179 529.361633,524.381958 529.634888,530.847290 
	C529.773071,534.118103 528.715271,535.309021 525.453430,535.333130 
	C522.125000,535.357666 520.829773,533.844910 521.165955,530.802673 
	C521.936584,523.829102 520.461182,516.838928 521.221558,509.918884 
	C521.774841,504.883118 519.589050,503.775177 514.891907,504.345032 
z"/>
<path fill="#000000" opacity="1.000000" stroke="none" 
	d="
M607.707764,510.015442 
	C607.712708,507.193817 607.801758,504.865173 607.702087,502.544617 
	C607.570557,499.481873 608.174072,497.515839 611.986694,497.522949 
	C615.676331,497.529816 616.425781,499.230133 616.363647,502.423492 
	C616.227966,509.395966 616.432434,516.375244 616.282593,523.347107 
	C616.214417,526.520935 617.307861,527.956543 620.579346,527.803223 
	C623.727539,527.655701 626.889404,527.829224 630.043640,527.771851 
	C632.772888,527.722290 633.989441,529.039673 633.976013,531.699219 
	C633.963257,534.225403 632.622009,535.249329 630.214172,535.240540 
	C624.069580,535.218079 617.924133,535.171631 611.780518,535.251221 
	C608.724731,535.290833 607.702087,533.756836 607.720459,530.939026 
	C607.764832,524.130310 607.718018,517.321045 607.707764,510.015442 
z"/>
</svg>